<mxfile host="app.diagrams.net" modified="2023-05-14T12:28:26.460Z" agent="Mozilla/5.0 (X11; Linux x86_64; rv:109.0) Gecko/20100101 Firefox/113.0" etag="KkGlJdlWjDN1FYk7bWTf" version="21.3.0" type="github">
  <diagram name="Page-1" id="GawN0sBzUaCXgQbSJTzt">
    <mxGraphModel dx="1434" dy="790" grid="1" gridSize="10" guides="1" tooltips="1" connect="1" arrows="1" fold="1" page="1" pageScale="1" pageWidth="1169" pageHeight="827" math="0" shadow="0">
      <root>
        <mxCell id="0" />
        <mxCell id="1" parent="0" />
        <mxCell id="Fs72LVVjV9bSrvQO9REc-50" value="" style="rounded=0;whiteSpace=wrap;html=1;fillColor=#D6D6D6;direction=east;" parent="1" vertex="1">
          <mxGeometry x="120" y="330" width="130" height="100" as="geometry" />
        </mxCell>
        <mxCell id="Fs72LVVjV9bSrvQO9REc-9" value="&lt;div&gt;4TB&lt;/div&gt;&lt;div&gt;hdd&lt;br&gt;&lt;/div&gt;" style="sketch=0;pointerEvents=1;shadow=0;dashed=0;html=1;strokeColor=none;fillColor=#505050;labelPosition=center;verticalLabelPosition=bottom;verticalAlign=top;outlineConnect=0;align=center;shape=mxgraph.office.devices.hard_disk;direction=east;" parent="1" vertex="1">
          <mxGeometry x="130" y="343" width="30" height="40" as="geometry" />
        </mxCell>
        <mxCell id="Fs72LVVjV9bSrvQO9REc-11" value="&lt;div&gt;4TB&lt;/div&gt;&lt;div&gt;hdd&lt;br&gt;&lt;/div&gt;" style="sketch=0;pointerEvents=1;shadow=0;dashed=0;html=1;strokeColor=none;fillColor=#505050;labelPosition=center;verticalLabelPosition=bottom;verticalAlign=top;outlineConnect=0;align=center;shape=mxgraph.office.devices.hard_disk;direction=east;" parent="1" vertex="1">
          <mxGeometry x="170" y="343" width="30" height="40" as="geometry" />
        </mxCell>
        <mxCell id="Fs72LVVjV9bSrvQO9REc-12" value="&lt;div&gt;4TB&lt;/div&gt;&lt;div&gt;hdd&lt;/div&gt;" style="sketch=0;pointerEvents=1;shadow=0;dashed=0;html=1;strokeColor=none;fillColor=#505050;labelPosition=center;verticalLabelPosition=bottom;verticalAlign=top;outlineConnect=0;align=center;shape=mxgraph.office.devices.hard_disk;direction=east;" parent="1" vertex="1">
          <mxGeometry x="210" y="343" width="30" height="40" as="geometry" />
        </mxCell>
        <mxCell id="Fs72LVVjV9bSrvQO9REc-13" value="500GB&#xa;ssd &#xa;(backup:&#xa;backup)" style="sketch=0;pointerEvents=1;shadow=0;dashed=0;strokeColor=none;fillColor=#505050;labelPosition=center;verticalLabelPosition=bottom;verticalAlign=top;outlineConnect=0;align=center;shape=mxgraph.office.devices.hard_disk;direction=east;" parent="1" vertex="1">
          <mxGeometry x="227.5" y="650" width="30" height="40" as="geometry" />
        </mxCell>
        <mxCell id="Fs72LVVjV9bSrvQO9REc-14" value="&lt;div&gt;500GB&lt;/div&gt;&lt;div&gt;wd&lt;br&gt;&lt;/div&gt;&lt;div&gt;(backup: &lt;br&gt;&lt;/div&gt;&lt;div&gt;nextcloud)&lt;br&gt;&lt;/div&gt;" style="sketch=0;pointerEvents=1;shadow=0;dashed=0;html=1;strokeColor=none;fillColor=#505050;labelPosition=center;verticalLabelPosition=bottom;verticalAlign=top;outlineConnect=0;align=center;shape=mxgraph.office.devices.hard_disk;" parent="1" vertex="1">
          <mxGeometry x="110" y="650" width="30" height="40" as="geometry" />
        </mxCell>
        <mxCell id="fxr6Ct1nMl8JVyecD1b2-149" style="edgeStyle=orthogonalEdgeStyle;rounded=0;orthogonalLoop=1;jettySize=auto;html=1;" parent="1" source="Fs72LVVjV9bSrvQO9REc-26" target="Fs72LVVjV9bSrvQO9REc-14" edge="1">
          <mxGeometry relative="1" as="geometry" />
        </mxCell>
        <mxCell id="fxr6Ct1nMl8JVyecD1b2-150" style="edgeStyle=orthogonalEdgeStyle;rounded=0;orthogonalLoop=1;jettySize=auto;html=1;" parent="1" source="Fs72LVVjV9bSrvQO9REc-26" target="Fs72LVVjV9bSrvQO9REc-13" edge="1">
          <mxGeometry relative="1" as="geometry" />
        </mxCell>
        <mxCell id="fxr6Ct1nMl8JVyecD1b2-151" style="edgeStyle=orthogonalEdgeStyle;rounded=0;orthogonalLoop=1;jettySize=auto;html=1;" parent="1" source="Fs72LVVjV9bSrvQO9REc-26" target="tln2pNOTJKCZgoth8Ehh-34" edge="1">
          <mxGeometry relative="1" as="geometry" />
        </mxCell>
        <mxCell id="Fs72LVVjV9bSrvQO9REc-26" value="datastore" style="swimlane;childLayout=stackLayout;resizeParent=1;resizeParentMax=0;startSize=20;html=1;direction=east;" parent="1" vertex="1">
          <mxGeometry x="62.5" y="430" width="244.99999999999955" height="140" as="geometry" />
        </mxCell>
        <mxCell id="Fs72LVVjV9bSrvQO9REc-27" value="nas" style="swimlane;startSize=20;html=1;direction=east;" parent="Fs72LVVjV9bSrvQO9REc-26" vertex="1">
          <mxGeometry y="20" width="74.99999999999955" height="120" as="geometry" />
        </mxCell>
        <mxCell id="Fs72LVVjV9bSrvQO9REc-32" value="&lt;div&gt;download&lt;/div&gt;&lt;div&gt;plex&lt;/div&gt;&lt;div&gt;family&lt;/div&gt;&lt;div&gt;other&lt;br&gt;&lt;/div&gt;" style="text;html=1;align=center;verticalAlign=middle;resizable=0;points=[];autosize=1;strokeColor=none;fillColor=none;" parent="Fs72LVVjV9bSrvQO9REc-27" vertex="1">
          <mxGeometry x="2.4999999999995453" y="25" width="70" height="70" as="geometry" />
        </mxCell>
        <mxCell id="Fs72LVVjV9bSrvQO9REc-28" value="proxmox" style="swimlane;startSize=20;html=1;direction=east;" parent="Fs72LVVjV9bSrvQO9REc-26" vertex="1">
          <mxGeometry x="74.99999999999955" y="20" width="80" height="120" as="geometry">
            <mxRectangle x="74.99999999999955" y="20" width="40" height="160" as="alternateBounds" />
          </mxGeometry>
        </mxCell>
        <mxCell id="Fs72LVVjV9bSrvQO9REc-31" value="&lt;div&gt;backup&lt;/div&gt;&lt;div&gt;docker&lt;/div&gt;&lt;div&gt;isos&lt;/div&gt;&lt;div&gt;vm-data&lt;br&gt;&lt;/div&gt;" style="text;html=1;align=center;verticalAlign=middle;resizable=0;points=[];autosize=1;strokeColor=none;fillColor=none;" parent="Fs72LVVjV9bSrvQO9REc-28" vertex="1">
          <mxGeometry x="4.999999999999545" y="25" width="70" height="70" as="geometry" />
        </mxCell>
        <mxCell id="Fs72LVVjV9bSrvQO9REc-29" value="nextcloud" style="swimlane;startSize=20;html=1;direction=east;" parent="Fs72LVVjV9bSrvQO9REc-26" vertex="1">
          <mxGeometry x="154.99999999999955" y="20" width="90" height="120" as="geometry">
            <mxRectangle x="240" y="20" width="40" height="160" as="alternateBounds" />
          </mxGeometry>
        </mxCell>
        <mxCell id="Fs72LVVjV9bSrvQO9REc-48" value="&lt;div&gt;2TB&lt;/div&gt;&lt;div&gt;hdd&lt;br&gt;&lt;/div&gt;&lt;div&gt;(backup:&lt;/div&gt;&lt;div&gt;family, other,&lt;/div&gt;&lt;div&gt;vm-data,&lt;/div&gt;&lt;div&gt;backup)&lt;br&gt;&lt;/div&gt;" style="sketch=0;pointerEvents=1;shadow=0;dashed=0;html=1;strokeColor=none;fillColor=#505050;labelPosition=center;verticalLabelPosition=bottom;verticalAlign=top;outlineConnect=0;align=center;shape=mxgraph.office.devices.hard_disk;" parent="1" vertex="1">
          <mxGeometry x="140" y="157.5" width="30" height="45" as="geometry" />
        </mxCell>
        <mxCell id="tln2pNOTJKCZgoth8Ehh-21" style="edgeStyle=orthogonalEdgeStyle;rounded=0;orthogonalLoop=1;jettySize=auto;html=1;entryX=0.5;entryY=0;entryDx=0;entryDy=0;" parent="1" source="tln2pNOTJKCZgoth8Ehh-8" target="tln2pNOTJKCZgoth8Ehh-18" edge="1">
          <mxGeometry relative="1" as="geometry">
            <mxPoint x="680" y="180" as="targetPoint" />
          </mxGeometry>
        </mxCell>
        <mxCell id="tln2pNOTJKCZgoth8Ehh-56" style="edgeStyle=orthogonalEdgeStyle;rounded=0;orthogonalLoop=1;jettySize=auto;html=1;entryX=0;entryY=0.5;entryDx=0;entryDy=0;" parent="1" source="tln2pNOTJKCZgoth8Ehh-8" target="tln2pNOTJKCZgoth8Ehh-10" edge="1">
          <mxGeometry relative="1" as="geometry" />
        </mxCell>
        <mxCell id="tln2pNOTJKCZgoth8Ehh-8" value="&lt;div&gt;Huawei Terminal&lt;/div&gt;&lt;div&gt;192.168.1.254/24&lt;br&gt;&lt;/div&gt;" style="image;html=1;image=img/lib/clip_art/networking/Router_128x128.png;labelBackgroundColor=#D5E8D4;" parent="1" vertex="1">
          <mxGeometry x="300" y="80" width="80" height="80" as="geometry" />
        </mxCell>
        <mxCell id="tln2pNOTJKCZgoth8Ehh-24" style="edgeStyle=orthogonalEdgeStyle;rounded=0;orthogonalLoop=1;jettySize=auto;html=1;" parent="1" source="tln2pNOTJKCZgoth8Ehh-10" target="tln2pNOTJKCZgoth8Ehh-15" edge="1">
          <mxGeometry relative="1" as="geometry" />
        </mxCell>
        <mxCell id="tln2pNOTJKCZgoth8Ehh-9" value="&lt;div&gt;TP-Link AP&lt;/div&gt;&lt;div&gt;192.168.1.253/24&lt;br&gt;&lt;/div&gt;" style="image;html=1;image=img/lib/clip_art/networking/Wireless_Router_128x128.png;labelBackgroundColor=#D5E8D4;" parent="1" vertex="1">
          <mxGeometry x="545" y="80" width="80" height="80" as="geometry" />
        </mxCell>
        <mxCell id="tln2pNOTJKCZgoth8Ehh-58" style="edgeStyle=orthogonalEdgeStyle;rounded=0;orthogonalLoop=1;jettySize=auto;html=1;entryX=0;entryY=0.5;entryDx=0;entryDy=0;" parent="1" source="tln2pNOTJKCZgoth8Ehh-10" target="tln2pNOTJKCZgoth8Ehh-9" edge="1">
          <mxGeometry relative="1" as="geometry" />
        </mxCell>
        <mxCell id="tln2pNOTJKCZgoth8Ehh-10" value="&lt;div&gt;TP-Link switch&lt;/div&gt;&lt;div&gt;192.168.1.252/24&lt;br&gt;&lt;/div&gt;" style="image;html=1;image=img/lib/clip_art/networking/Switch_128x128.png;labelBackgroundColor=#D5E8D4;" parent="1" vertex="1">
          <mxGeometry x="420" y="80" width="80" height="80" as="geometry" />
        </mxCell>
        <mxCell id="tln2pNOTJKCZgoth8Ehh-25" style="edgeStyle=orthogonalEdgeStyle;rounded=0;orthogonalLoop=1;jettySize=auto;html=1;entryX=0.5;entryY=0;entryDx=0;entryDy=0;" parent="1" source="tln2pNOTJKCZgoth8Ehh-15" target="Fs72LVVjV9bSrvQO9REc-50" edge="1">
          <mxGeometry relative="1" as="geometry">
            <Array as="points">
              <mxPoint x="185" y="300" />
            </Array>
          </mxGeometry>
        </mxCell>
        <mxCell id="fxr6Ct1nMl8JVyecD1b2-109" style="edgeStyle=orthogonalEdgeStyle;rounded=0;orthogonalLoop=1;jettySize=auto;html=1;entryX=0.5;entryY=0;entryDx=0;entryDy=0;" parent="1" source="tln2pNOTJKCZgoth8Ehh-15" target="fxr6Ct1nMl8JVyecD1b2-2" edge="1">
          <mxGeometry relative="1" as="geometry">
            <Array as="points">
              <mxPoint x="460" y="520" />
              <mxPoint x="410" y="520" />
            </Array>
          </mxGeometry>
        </mxCell>
        <mxCell id="fxr6Ct1nMl8JVyecD1b2-110" style="edgeStyle=orthogonalEdgeStyle;rounded=0;orthogonalLoop=1;jettySize=auto;html=1;entryX=0.5;entryY=0;entryDx=0;entryDy=0;" parent="1" source="tln2pNOTJKCZgoth8Ehh-15" target="fxr6Ct1nMl8JVyecD1b2-100" edge="1">
          <mxGeometry relative="1" as="geometry">
            <Array as="points">
              <mxPoint x="460" y="520" />
              <mxPoint x="530" y="520" />
            </Array>
          </mxGeometry>
        </mxCell>
        <mxCell id="fxr6Ct1nMl8JVyecD1b2-111" style="edgeStyle=orthogonalEdgeStyle;rounded=0;orthogonalLoop=1;jettySize=auto;html=1;entryX=0.5;entryY=0;entryDx=0;entryDy=0;" parent="1" source="tln2pNOTJKCZgoth8Ehh-15" target="fxr6Ct1nMl8JVyecD1b2-87" edge="1">
          <mxGeometry relative="1" as="geometry">
            <Array as="points">
              <mxPoint x="460" y="520" />
              <mxPoint x="650" y="520" />
            </Array>
          </mxGeometry>
        </mxCell>
        <mxCell id="fxr6Ct1nMl8JVyecD1b2-112" style="edgeStyle=orthogonalEdgeStyle;rounded=0;orthogonalLoop=1;jettySize=auto;html=1;entryX=0.5;entryY=0;entryDx=0;entryDy=0;" parent="1" source="fxr6Ct1nMl8JVyecD1b2-122" target="fxr6Ct1nMl8JVyecD1b2-68" edge="1">
          <mxGeometry relative="1" as="geometry">
            <Array as="points">
              <mxPoint x="460" y="520" />
              <mxPoint x="890" y="520" />
            </Array>
          </mxGeometry>
        </mxCell>
        <mxCell id="fxr6Ct1nMl8JVyecD1b2-126" style="edgeStyle=orthogonalEdgeStyle;rounded=0;orthogonalLoop=1;jettySize=auto;html=1;entryX=0.5;entryY=0;entryDx=0;entryDy=0;" parent="1" source="tln2pNOTJKCZgoth8Ehh-15" target="fxr6Ct1nMl8JVyecD1b2-72" edge="1">
          <mxGeometry relative="1" as="geometry">
            <Array as="points">
              <mxPoint x="460" y="520" />
              <mxPoint x="1010" y="520" />
            </Array>
          </mxGeometry>
        </mxCell>
        <mxCell id="fxr6Ct1nMl8JVyecD1b2-130" style="edgeStyle=orthogonalEdgeStyle;rounded=0;orthogonalLoop=1;jettySize=auto;html=1;entryX=0;entryY=0.5;entryDx=0;entryDy=0;" parent="1" source="tln2pNOTJKCZgoth8Ehh-15" target="fxr6Ct1nMl8JVyecD1b2-116" edge="1">
          <mxGeometry relative="1" as="geometry">
            <Array as="points">
              <mxPoint x="600" y="300" />
              <mxPoint x="600" y="270" />
            </Array>
          </mxGeometry>
        </mxCell>
        <mxCell id="fxr6Ct1nMl8JVyecD1b2-131" style="edgeStyle=orthogonalEdgeStyle;rounded=0;orthogonalLoop=1;jettySize=auto;html=1;entryX=0;entryY=0.5;entryDx=0;entryDy=0;" parent="1" source="tln2pNOTJKCZgoth8Ehh-15" target="fxr6Ct1nMl8JVyecD1b2-42" edge="1">
          <mxGeometry relative="1" as="geometry">
            <Array as="points">
              <mxPoint x="600" y="300" />
              <mxPoint x="600" y="330" />
            </Array>
          </mxGeometry>
        </mxCell>
        <mxCell id="fxr6Ct1nMl8JVyecD1b2-141" style="edgeStyle=orthogonalEdgeStyle;rounded=0;orthogonalLoop=1;jettySize=auto;html=1;entryX=0;entryY=0.5;entryDx=0;entryDy=0;" parent="1" source="tln2pNOTJKCZgoth8Ehh-15" target="fxr6Ct1nMl8JVyecD1b2-138" edge="1">
          <mxGeometry relative="1" as="geometry">
            <Array as="points">
              <mxPoint x="600" y="300" />
              <mxPoint x="600" y="393" />
            </Array>
          </mxGeometry>
        </mxCell>
        <mxCell id="hygX6IKFytHFEAlB1i6J-7" style="edgeStyle=orthogonalEdgeStyle;rounded=0;orthogonalLoop=1;jettySize=auto;html=1;entryX=0.5;entryY=0;entryDx=0;entryDy=0;" edge="1" parent="1" source="tln2pNOTJKCZgoth8Ehh-15" target="hygX6IKFytHFEAlB1i6J-4">
          <mxGeometry relative="1" as="geometry">
            <Array as="points">
              <mxPoint x="460" y="520" />
              <mxPoint x="770" y="520" />
            </Array>
          </mxGeometry>
        </mxCell>
        <mxCell id="tln2pNOTJKCZgoth8Ehh-15" value="&lt;div&gt;Proxmox&lt;/div&gt;&lt;div&gt;192.168.1.2/24&lt;br&gt;&lt;/div&gt;" style="image;html=1;image=img/lib/clip_art/computers/Server_Tower_128x128.png;labelBackgroundColor=#FFBD38;" parent="1" vertex="1">
          <mxGeometry x="420" y="260" width="80" height="80" as="geometry" />
        </mxCell>
        <mxCell id="tln2pNOTJKCZgoth8Ehh-39" value="" style="edgeStyle=orthogonalEdgeStyle;rounded=0;orthogonalLoop=1;jettySize=auto;html=1;" parent="1" source="tln2pNOTJKCZgoth8Ehh-18" target="Fs72LVVjV9bSrvQO9REc-48" edge="1">
          <mxGeometry relative="1" as="geometry" />
        </mxCell>
        <mxCell id="tln2pNOTJKCZgoth8Ehh-18" value="&lt;div&gt;&lt;b&gt;arch&lt;/b&gt;&lt;/div&gt;&lt;div&gt;&lt;b&gt;192.168.1.100&lt;br&gt;&lt;/b&gt;&lt;/div&gt;" style="shape=image;html=1;verticalAlign=top;verticalLabelPosition=bottom;labelBackgroundColor=#78FFFF;imageAspect=0;aspect=fixed;image=https://cdn0.iconfinder.com/data/icons/icons-unleashed-vol1/128/-desktop.png" parent="1" vertex="1">
          <mxGeometry x="200" y="145" width="70" height="70" as="geometry" />
        </mxCell>
        <mxCell id="tln2pNOTJKCZgoth8Ehh-34" value="&lt;div&gt;800GB&lt;/div&gt;&lt;div&gt;wd&lt;/div&gt;&lt;div&gt;(backup:&lt;/div&gt;&lt;div&gt;vm-data&lt;/div&gt;&lt;div&gt;docker)&lt;br&gt;&lt;/div&gt;" style="sketch=0;pointerEvents=1;shadow=0;dashed=0;html=1;strokeColor=none;fillColor=#505050;labelPosition=center;verticalLabelPosition=bottom;verticalAlign=top;outlineConnect=0;align=center;shape=mxgraph.office.devices.hard_disk;" parent="1" vertex="1">
          <mxGeometry x="170" y="650" width="30" height="40" as="geometry" />
        </mxCell>
        <mxCell id="tln2pNOTJKCZgoth8Ehh-45" value="BACKUP #2" style="text;html=1;align=center;verticalAlign=middle;resizable=0;points=[];autosize=1;strokeColor=none;fillColor=none;" parent="1" vertex="1">
          <mxGeometry x="140" y="607.5" width="90" height="30" as="geometry" />
        </mxCell>
        <mxCell id="tln2pNOTJKCZgoth8Ehh-46" value="BACKUP #3" style="text;html=1;align=center;verticalAlign=middle;resizable=0;points=[];autosize=1;strokeColor=none;fillColor=none;textDirection=ltr;rotation=0;" parent="1" vertex="1">
          <mxGeometry x="110" y="127.5" width="90" height="30" as="geometry" />
        </mxCell>
        <mxCell id="tln2pNOTJKCZgoth8Ehh-51" value="&lt;div style=&quot;font-size: 24px;&quot;&gt;Sync:&lt;/div&gt;" style="text;html=1;align=center;verticalAlign=middle;resizable=0;points=[];autosize=1;strokeColor=none;fillColor=none;fontSize=24;fontStyle=4" parent="1" vertex="1">
          <mxGeometry x="950" y="20" width="80" height="40" as="geometry" />
        </mxCell>
        <mxCell id="tln2pNOTJKCZgoth8Ehh-54" value="" style="edgeStyle=orthogonalEdgeStyle;rounded=0;orthogonalLoop=1;jettySize=auto;html=1;" parent="1" source="tln2pNOTJKCZgoth8Ehh-52" target="tln2pNOTJKCZgoth8Ehh-53" edge="1">
          <mxGeometry relative="1" as="geometry" />
        </mxCell>
        <mxCell id="tln2pNOTJKCZgoth8Ehh-52" value="/datastore/nas/family" style="text;align=center;verticalAlign=middle;resizable=0;points=[];autosize=1;strokeColor=none;fillColor=none;labelBackgroundColor=#B9E0A5;labelBorderColor=none;html=1;" parent="1" vertex="1">
          <mxGeometry x="820" y="60" width="130" height="30" as="geometry" />
        </mxCell>
        <mxCell id="tln2pNOTJKCZgoth8Ehh-55" style="edgeStyle=orthogonalEdgeStyle;rounded=0;orthogonalLoop=1;jettySize=auto;html=1;" parent="1" source="tln2pNOTJKCZgoth8Ehh-53" target="tln2pNOTJKCZgoth8Ehh-52" edge="1">
          <mxGeometry relative="1" as="geometry" />
        </mxCell>
        <mxCell id="tln2pNOTJKCZgoth8Ehh-53" value="/datastore/nextcloud" style="text;html=1;align=center;verticalAlign=middle;resizable=0;points=[];autosize=1;strokeColor=none;fillColor=none;fontColor=#000000;labelBackgroundColor=#B9E0A5;" parent="1" vertex="1">
          <mxGeometry x="1025" y="60" width="130" height="30" as="geometry" />
        </mxCell>
        <mxCell id="fxr6Ct1nMl8JVyecD1b2-2" value="&lt;div style=&quot;&quot;&gt;docker ct100&lt;br&gt;&lt;/div&gt;&lt;div style=&quot;&quot;&gt;&lt;font style=&quot;font-size: 12px;&quot;&gt;192.168.1.3&lt;font style=&quot;font-size: 12px;&quot;&gt;&lt;br&gt;&lt;/font&gt;&lt;/font&gt;&lt;/div&gt;" style="swimlane;fontStyle=0;childLayout=stackLayout;horizontal=1;startSize=30;horizontalStack=0;resizeParent=1;resizeParentMax=0;resizeLast=0;collapsible=1;marginBottom=0;whiteSpace=wrap;html=1;labelBackgroundColor=none;labelBorderColor=none;swimlaneLine=1;strokeColor=default;rounded=1;swimlaneFillColor=#D4FEFF;fillColor=none;glass=0;shadow=0;arcSize=10;" parent="1" vertex="1">
          <mxGeometry x="360" y="594.5" width="100" height="160" as="geometry">
            <mxRectangle x="360" y="594.5" width="100" height="30" as="alternateBounds" />
          </mxGeometry>
        </mxCell>
        <mxCell id="fxr6Ct1nMl8JVyecD1b2-3" value="Nginx" style="text;strokeColor=none;fillColor=none;align=center;verticalAlign=top;spacingLeft=4;spacingRight=4;overflow=hidden;points=[[0,0.5],[1,0.5]];portConstraint=eastwest;rotatable=0;fontSize=10;horizontal=1;labelPosition=center;verticalLabelPosition=top;html=1;whiteSpace=wrap;spacing=9;" parent="fxr6Ct1nMl8JVyecD1b2-2" vertex="1">
          <mxGeometry y="30" width="100" height="13" as="geometry" />
        </mxCell>
        <mxCell id="fxr6Ct1nMl8JVyecD1b2-26" value="DDNS" style="text;strokeColor=none;fillColor=none;align=center;verticalAlign=top;spacingLeft=4;spacingRight=4;overflow=hidden;points=[[0,0.5],[1,0.5]];portConstraint=eastwest;rotatable=0;fontSize=10;horizontal=1;labelPosition=center;verticalLabelPosition=top;html=1;whiteSpace=wrap;spacing=9;" parent="fxr6Ct1nMl8JVyecD1b2-2" vertex="1">
          <mxGeometry y="43" width="100" height="13" as="geometry" />
        </mxCell>
        <mxCell id="fxr6Ct1nMl8JVyecD1b2-21" value="Dashboard" style="text;strokeColor=none;fillColor=none;align=center;verticalAlign=top;spacingLeft=4;spacingRight=4;overflow=hidden;points=[[0,0.5],[1,0.5]];portConstraint=eastwest;rotatable=0;fontSize=10;horizontal=1;labelPosition=center;verticalLabelPosition=top;html=1;whiteSpace=wrap;spacing=9;" parent="fxr6Ct1nMl8JVyecD1b2-2" vertex="1">
          <mxGeometry y="56" width="100" height="13" as="geometry" />
        </mxCell>
        <mxCell id="fxr6Ct1nMl8JVyecD1b2-25" value="Uptime Kuma" style="text;strokeColor=none;fillColor=none;align=center;verticalAlign=top;spacingLeft=4;spacingRight=4;overflow=hidden;points=[[0,0.5],[1,0.5]];portConstraint=eastwest;rotatable=0;fontSize=10;horizontal=1;labelPosition=center;verticalLabelPosition=top;html=1;whiteSpace=wrap;spacing=9;" parent="fxr6Ct1nMl8JVyecD1b2-2" vertex="1">
          <mxGeometry y="69" width="100" height="13" as="geometry" />
        </mxCell>
        <mxCell id="fxr6Ct1nMl8JVyecD1b2-24" value="Gotify" style="text;strokeColor=none;fillColor=none;align=center;verticalAlign=top;spacingLeft=4;spacingRight=4;overflow=hidden;points=[[0,0.5],[1,0.5]];portConstraint=eastwest;rotatable=0;fontSize=10;horizontal=1;labelPosition=center;verticalLabelPosition=top;html=1;whiteSpace=wrap;spacing=9;" parent="fxr6Ct1nMl8JVyecD1b2-2" vertex="1">
          <mxGeometry y="82" width="100" height="13" as="geometry" />
        </mxCell>
        <mxCell id="fxr6Ct1nMl8JVyecD1b2-85" value="Wireguard" style="text;strokeColor=none;fillColor=none;align=center;verticalAlign=top;spacingLeft=4;spacingRight=4;overflow=hidden;points=[[0,0.5],[1,0.5]];portConstraint=eastwest;rotatable=0;fontSize=10;horizontal=1;labelPosition=center;verticalLabelPosition=top;html=1;whiteSpace=wrap;spacing=9;" parent="fxr6Ct1nMl8JVyecD1b2-2" vertex="1">
          <mxGeometry y="95" width="100" height="13" as="geometry" />
        </mxCell>
        <mxCell id="fxr6Ct1nMl8JVyecD1b2-37" value="qBittorrent" style="text;strokeColor=none;fillColor=none;align=center;verticalAlign=top;spacingLeft=4;spacingRight=4;overflow=hidden;points=[[0,0.5],[1,0.5]];portConstraint=eastwest;rotatable=0;fontSize=10;horizontal=1;labelPosition=center;verticalLabelPosition=top;html=1;whiteSpace=wrap;spacing=9;" parent="fxr6Ct1nMl8JVyecD1b2-2" vertex="1">
          <mxGeometry y="108" width="100" height="13" as="geometry" />
        </mxCell>
        <mxCell id="fxr6Ct1nMl8JVyecD1b2-84" value="Sonarr" style="text;strokeColor=none;fillColor=none;align=center;verticalAlign=top;spacingLeft=4;spacingRight=4;overflow=hidden;points=[[0,0.5],[1,0.5]];portConstraint=eastwest;rotatable=0;fontSize=10;horizontal=1;labelPosition=center;verticalLabelPosition=top;html=1;whiteSpace=wrap;spacing=9;" parent="fxr6Ct1nMl8JVyecD1b2-2" vertex="1">
          <mxGeometry y="121" width="100" height="13" as="geometry" />
        </mxCell>
        <mxCell id="fxr6Ct1nMl8JVyecD1b2-78" value="Radarr" style="text;strokeColor=none;fillColor=none;align=center;verticalAlign=top;spacingLeft=4;spacingRight=4;overflow=hidden;points=[[0,0.5],[1,0.5]];portConstraint=eastwest;rotatable=0;fontSize=10;horizontal=1;labelPosition=center;verticalLabelPosition=top;html=1;whiteSpace=wrap;spacing=9;" parent="fxr6Ct1nMl8JVyecD1b2-2" vertex="1">
          <mxGeometry y="134" width="100" height="13" as="geometry" />
        </mxCell>
        <mxCell id="fxr6Ct1nMl8JVyecD1b2-79" value="Sabnzbd" style="text;strokeColor=none;fillColor=none;align=center;verticalAlign=top;spacingLeft=4;spacingRight=4;overflow=hidden;points=[[0,0.5],[1,0.5]];portConstraint=eastwest;rotatable=0;fontSize=10;horizontal=1;labelPosition=center;verticalLabelPosition=top;html=1;whiteSpace=wrap;spacing=9;" parent="fxr6Ct1nMl8JVyecD1b2-2" vertex="1">
          <mxGeometry y="147" width="100" height="13" as="geometry" />
        </mxCell>
        <mxCell id="fxr6Ct1nMl8JVyecD1b2-42" value="&lt;div&gt;Debian VM&lt;/div&gt;192.168.1.21" style="swimlane;fontStyle=0;childLayout=stackLayout;horizontal=1;startSize=30;horizontalStack=0;resizeParent=1;resizeParentMax=0;resizeLast=0;collapsible=1;marginBottom=0;whiteSpace=wrap;html=1;labelBackgroundColor=none;labelBorderColor=none;swimlaneLine=1;strokeColor=default;rounded=1;swimlaneFillColor=#D4FEFF;fillColor=none;glass=0;shadow=0;arcSize=10;" parent="1" vertex="1">
          <mxGeometry x="640" y="308.5" width="100" height="43" as="geometry">
            <mxRectangle x="920" y="280" width="100" height="30" as="alternateBounds" />
          </mxGeometry>
        </mxCell>
        <mxCell id="fxr6Ct1nMl8JVyecD1b2-66" value="Jellyfin" style="text;strokeColor=none;fillColor=none;align=center;verticalAlign=top;spacingLeft=4;spacingRight=4;overflow=hidden;points=[[0,0.5],[1,0.5]];portConstraint=eastwest;rotatable=0;fontSize=10;horizontal=1;labelPosition=center;verticalLabelPosition=top;html=1;whiteSpace=wrap;spacing=9;" parent="fxr6Ct1nMl8JVyecD1b2-42" vertex="1">
          <mxGeometry y="30" width="100" height="13" as="geometry" />
        </mxCell>
        <mxCell id="fxr6Ct1nMl8JVyecD1b2-134" value="" style="edgeStyle=orthogonalEdgeStyle;rounded=0;orthogonalLoop=1;jettySize=auto;html=1;" parent="1" source="fxr6Ct1nMl8JVyecD1b2-68" target="fxr6Ct1nMl8JVyecD1b2-132" edge="1">
          <mxGeometry relative="1" as="geometry" />
        </mxCell>
        <mxCell id="fxr6Ct1nMl8JVyecD1b2-68" value="&lt;div&gt;TurnkeyWP&lt;/div&gt;&lt;div&gt;192.168.1.10&lt;br&gt;&lt;/div&gt;" style="swimlane;fontStyle=0;childLayout=stackLayout;horizontal=1;startSize=30;horizontalStack=0;resizeParent=1;resizeParentMax=0;resizeLast=0;collapsible=1;marginBottom=0;whiteSpace=wrap;html=1;labelBackgroundColor=none;labelBorderColor=none;swimlaneLine=1;strokeColor=default;rounded=1;swimlaneFillColor=#D4FEFF;fillColor=none;glass=0;shadow=0;arcSize=10;" parent="1" vertex="1">
          <mxGeometry x="840" y="594.5" width="100" height="43" as="geometry">
            <mxRectangle x="480" y="594.5" width="100" height="30" as="alternateBounds" />
          </mxGeometry>
        </mxCell>
        <mxCell id="fxr6Ct1nMl8JVyecD1b2-70" value="szabit" style="text;strokeColor=none;fillColor=none;align=center;verticalAlign=top;spacingLeft=4;spacingRight=4;overflow=hidden;points=[[0,0.5],[1,0.5]];portConstraint=eastwest;rotatable=0;fontSize=10;horizontal=1;labelPosition=center;verticalLabelPosition=top;html=1;whiteSpace=wrap;spacing=9;" parent="fxr6Ct1nMl8JVyecD1b2-68" vertex="1">
          <mxGeometry y="30" width="100" height="13" as="geometry" />
        </mxCell>
        <mxCell id="fxr6Ct1nMl8JVyecD1b2-72" value="&lt;div&gt;TurnkeyWP&lt;/div&gt;&lt;div&gt;192.168.1.20&lt;br&gt;&lt;/div&gt;" style="swimlane;fontStyle=0;childLayout=stackLayout;horizontal=1;startSize=30;horizontalStack=0;resizeParent=1;resizeParentMax=0;resizeLast=0;collapsible=1;marginBottom=0;whiteSpace=wrap;html=1;labelBackgroundColor=none;labelBorderColor=none;swimlaneLine=1;strokeColor=default;rounded=1;swimlaneFillColor=#D4FEFF;fillColor=none;glass=0;shadow=0;arcSize=10;" parent="1" vertex="1">
          <mxGeometry x="960" y="594.5" width="100" height="43" as="geometry">
            <mxRectangle x="600" y="594.5" width="100" height="30" as="alternateBounds" />
          </mxGeometry>
        </mxCell>
        <mxCell id="fxr6Ct1nMl8JVyecD1b2-73" value="varlakingatlan" style="text;strokeColor=none;fillColor=none;align=center;verticalAlign=top;spacingLeft=4;spacingRight=4;overflow=hidden;points=[[0,0.5],[1,0.5]];portConstraint=eastwest;rotatable=0;fontSize=10;horizontal=1;labelPosition=center;verticalLabelPosition=top;html=1;whiteSpace=wrap;spacing=9;" parent="fxr6Ct1nMl8JVyecD1b2-72" vertex="1">
          <mxGeometry y="30" width="100" height="13" as="geometry" />
        </mxCell>
        <mxCell id="fxr6Ct1nMl8JVyecD1b2-87" value="ct102&lt;div style=&quot;&quot;&gt;&lt;font style=&quot;font-size: 12px;&quot;&gt;192.168.1.5&lt;font style=&quot;font-size: 12px;&quot;&gt;&lt;br&gt;&lt;/font&gt;&lt;/font&gt;&lt;/div&gt;" style="swimlane;fontStyle=0;childLayout=stackLayout;horizontal=1;startSize=30;horizontalStack=0;resizeParent=1;resizeParentMax=0;resizeLast=0;collapsible=1;marginBottom=0;whiteSpace=wrap;html=1;labelBackgroundColor=none;labelBorderColor=none;swimlaneLine=1;strokeColor=default;rounded=1;swimlaneFillColor=#D4FEFF;fillColor=none;glass=0;shadow=0;arcSize=10;" parent="1" vertex="1">
          <mxGeometry x="600" y="594.5" width="100" height="43" as="geometry">
            <mxRectangle x="360" y="594.5" width="100" height="30" as="alternateBounds" />
          </mxGeometry>
        </mxCell>
        <mxCell id="fxr6Ct1nMl8JVyecD1b2-106" value="nfs-server" style="text;strokeColor=none;fillColor=none;align=center;verticalAlign=top;spacingLeft=4;spacingRight=4;overflow=hidden;points=[[0,0.5],[1,0.5]];portConstraint=eastwest;rotatable=0;fontSize=10;horizontal=1;labelPosition=center;verticalLabelPosition=top;html=1;whiteSpace=wrap;spacing=9;" parent="fxr6Ct1nMl8JVyecD1b2-87" vertex="1">
          <mxGeometry y="30" width="100" height="13" as="geometry" />
        </mxCell>
        <mxCell id="fxr6Ct1nMl8JVyecD1b2-100" value="ct101&lt;div style=&quot;&quot;&gt;&lt;font style=&quot;font-size: 12px;&quot;&gt;192.168.1.4&lt;font style=&quot;font-size: 12px;&quot;&gt;&lt;br&gt;&lt;/font&gt;&lt;/font&gt;&lt;/div&gt;" style="swimlane;fontStyle=0;childLayout=stackLayout;horizontal=1;startSize=30;horizontalStack=0;resizeParent=1;resizeParentMax=0;resizeLast=0;collapsible=1;marginBottom=0;whiteSpace=wrap;html=1;labelBackgroundColor=none;labelBorderColor=none;swimlaneLine=1;strokeColor=default;rounded=1;swimlaneFillColor=#D4FEFF;fillColor=none;glass=0;shadow=0;arcSize=10;" parent="1" vertex="1">
          <mxGeometry x="480" y="594.5" width="100" height="43" as="geometry">
            <mxRectangle x="360" y="594.5" width="100" height="30" as="alternateBounds" />
          </mxGeometry>
        </mxCell>
        <mxCell id="fxr6Ct1nMl8JVyecD1b2-76" value="PiHole" style="text;strokeColor=none;fillColor=none;align=center;verticalAlign=top;spacingLeft=4;spacingRight=4;overflow=hidden;points=[[0,0.5],[1,0.5]];portConstraint=eastwest;rotatable=0;fontSize=10;horizontal=1;labelPosition=center;verticalLabelPosition=top;html=1;whiteSpace=wrap;spacing=9;" parent="fxr6Ct1nMl8JVyecD1b2-100" vertex="1">
          <mxGeometry y="30" width="100" height="13" as="geometry" />
        </mxCell>
        <mxCell id="fxr6Ct1nMl8JVyecD1b2-115" style="edgeStyle=orthogonalEdgeStyle;rounded=0;orthogonalLoop=1;jettySize=auto;html=1;" parent="1" source="fxr6Ct1nMl8JVyecD1b2-114" target="tln2pNOTJKCZgoth8Ehh-8" edge="1">
          <mxGeometry relative="1" as="geometry" />
        </mxCell>
        <mxCell id="fxr6Ct1nMl8JVyecD1b2-114" value="ISP 300/100Mbit" style="sketch=0;outlineConnect=0;fontColor=#232F3E;gradientColor=none;fillColor=#232F3D;strokeColor=none;dashed=0;verticalLabelPosition=bottom;verticalAlign=top;align=center;html=1;fontSize=12;fontStyle=0;aspect=fixed;pointerEvents=1;shape=mxgraph.aws4.internet;" parent="1" vertex="1">
          <mxGeometry x="22" y="16" width="78" height="48" as="geometry" />
        </mxCell>
        <mxCell id="fxr6Ct1nMl8JVyecD1b2-116" value="&lt;div&gt;Debian VM&lt;/div&gt;192.168.1.20" style="swimlane;fontStyle=0;childLayout=stackLayout;horizontal=1;startSize=30;horizontalStack=0;resizeParent=1;resizeParentMax=0;resizeLast=0;collapsible=1;marginBottom=0;whiteSpace=wrap;html=1;labelBackgroundColor=none;labelBorderColor=none;swimlaneLine=1;strokeColor=default;rounded=1;swimlaneFillColor=#D4FEFF;fillColor=none;glass=0;shadow=0;arcSize=10;" parent="1" vertex="1">
          <mxGeometry x="640" y="248.5" width="100" height="43" as="geometry">
            <mxRectangle x="920" y="280" width="100" height="30" as="alternateBounds" />
          </mxGeometry>
        </mxCell>
        <mxCell id="fxr6Ct1nMl8JVyecD1b2-118" value="Nextcloud" style="text;strokeColor=none;fillColor=none;align=center;verticalAlign=top;spacingLeft=4;spacingRight=4;overflow=hidden;points=[[0,0.5],[1,0.5]];portConstraint=eastwest;rotatable=0;fontSize=10;horizontal=1;labelPosition=center;verticalLabelPosition=top;html=1;whiteSpace=wrap;spacing=9;" parent="fxr6Ct1nMl8JVyecD1b2-116" vertex="1">
          <mxGeometry y="30" width="100" height="13" as="geometry" />
        </mxCell>
        <mxCell id="fxr6Ct1nMl8JVyecD1b2-122" value="LXC" style="whiteSpace=wrap;html=1;" parent="1" vertex="1">
          <mxGeometry x="440" y="414" width="40" height="26" as="geometry" />
        </mxCell>
        <mxCell id="fxr6Ct1nMl8JVyecD1b2-124" value="VM" style="whiteSpace=wrap;html=1;" parent="1" vertex="1">
          <mxGeometry x="530" y="288.5" width="40" height="20" as="geometry" />
        </mxCell>
        <mxCell id="fxr6Ct1nMl8JVyecD1b2-137" value="" style="edgeStyle=orthogonalEdgeStyle;rounded=0;orthogonalLoop=1;jettySize=auto;html=1;" parent="1" source="fxr6Ct1nMl8JVyecD1b2-132" target="fxr6Ct1nMl8JVyecD1b2-135" edge="1">
          <mxGeometry relative="1" as="geometry" />
        </mxCell>
        <mxCell id="fxr6Ct1nMl8JVyecD1b2-132" value="&lt;div&gt;TurnkeyWP&lt;/div&gt;&lt;div&gt;192.168.1.11&lt;/div&gt;" style="swimlane;fontStyle=0;childLayout=stackLayout;horizontal=1;startSize=30;horizontalStack=0;resizeParent=1;resizeParentMax=0;resizeLast=0;collapsible=1;marginBottom=0;whiteSpace=wrap;html=1;labelBackgroundColor=none;labelBorderColor=none;swimlaneLine=1;strokeColor=default;rounded=1;swimlaneFillColor=#D4FEFF;fillColor=none;glass=0;shadow=0;arcSize=10;" parent="1" vertex="1">
          <mxGeometry x="840" y="660" width="100" height="43" as="geometry">
            <mxRectangle x="480" y="594.5" width="100" height="30" as="alternateBounds" />
          </mxGeometry>
        </mxCell>
        <mxCell id="fxr6Ct1nMl8JVyecD1b2-133" value="wp.szabit" style="text;strokeColor=none;fillColor=none;align=center;verticalAlign=top;spacingLeft=4;spacingRight=4;overflow=hidden;points=[[0,0.5],[1,0.5]];portConstraint=eastwest;rotatable=0;fontSize=10;horizontal=1;labelPosition=center;verticalLabelPosition=top;html=1;whiteSpace=wrap;spacing=9;" parent="fxr6Ct1nMl8JVyecD1b2-132" vertex="1">
          <mxGeometry y="30" width="100" height="13" as="geometry" />
        </mxCell>
        <mxCell id="fxr6Ct1nMl8JVyecD1b2-135" value="&lt;div&gt;TurnkeyWP&lt;/div&gt;&lt;div&gt;192.168.1.12&lt;/div&gt;" style="swimlane;fontStyle=0;childLayout=stackLayout;horizontal=1;startSize=30;horizontalStack=0;resizeParent=1;resizeParentMax=0;resizeLast=0;collapsible=1;marginBottom=0;whiteSpace=wrap;html=1;labelBackgroundColor=none;labelBorderColor=none;swimlaneLine=1;strokeColor=default;rounded=1;swimlaneFillColor=#D4FEFF;fillColor=none;glass=0;shadow=0;arcSize=10;" parent="1" vertex="1">
          <mxGeometry x="840" y="720" width="100" height="43" as="geometry">
            <mxRectangle x="480" y="594.5" width="100" height="30" as="alternateBounds" />
          </mxGeometry>
        </mxCell>
        <mxCell id="fxr6Ct1nMl8JVyecD1b2-136" value="varlak.szabit" style="text;strokeColor=none;fillColor=none;align=center;verticalAlign=top;spacingLeft=4;spacingRight=4;overflow=hidden;points=[[0,0.5],[1,0.5]];portConstraint=eastwest;rotatable=0;fontSize=10;horizontal=1;labelPosition=center;verticalLabelPosition=top;html=1;whiteSpace=wrap;spacing=9;" parent="fxr6Ct1nMl8JVyecD1b2-135" vertex="1">
          <mxGeometry y="30" width="100" height="13" as="geometry" />
        </mxCell>
        <mxCell id="fxr6Ct1nMl8JVyecD1b2-138" value="&lt;div&gt;Debian VM&lt;/div&gt;192.168.1.22" style="swimlane;fontStyle=0;childLayout=stackLayout;horizontal=1;startSize=30;horizontalStack=0;resizeParent=1;resizeParentMax=0;resizeLast=0;collapsible=1;marginBottom=0;whiteSpace=wrap;html=1;labelBackgroundColor=none;labelBorderColor=none;swimlaneLine=1;strokeColor=default;rounded=1;swimlaneFillColor=#D4FEFF;fillColor=none;glass=0;shadow=0;arcSize=10;" parent="1" vertex="1">
          <mxGeometry x="640" y="371" width="100" height="43" as="geometry">
            <mxRectangle x="920" y="280" width="100" height="30" as="alternateBounds" />
          </mxGeometry>
        </mxCell>
        <mxCell id="fxr6Ct1nMl8JVyecD1b2-139" value="ftp" style="text;strokeColor=none;fillColor=none;align=center;verticalAlign=top;spacingLeft=4;spacingRight=4;overflow=hidden;points=[[0,0.5],[1,0.5]];portConstraint=eastwest;rotatable=0;fontSize=10;horizontal=1;labelPosition=center;verticalLabelPosition=top;html=1;whiteSpace=wrap;spacing=9;" parent="fxr6Ct1nMl8JVyecD1b2-138" vertex="1">
          <mxGeometry y="30" width="100" height="13" as="geometry" />
        </mxCell>
        <mxCell id="hygX6IKFytHFEAlB1i6J-1" value="" style="endArrow=none;html=1;rounded=0;strokeWidth=3;sketch=1;curveFitting=1;jiggle=2;" edge="1" parent="1">
          <mxGeometry width="50" height="50" relative="1" as="geometry">
            <mxPoint x="590" y="450" as="sourcePoint" />
            <mxPoint x="760" y="220" as="targetPoint" />
          </mxGeometry>
        </mxCell>
        <mxCell id="hygX6IKFytHFEAlB1i6J-2" value="" style="endArrow=none;html=1;rounded=0;strokeWidth=3;sketch=1;curveFitting=1;jiggle=2;" edge="1" parent="1">
          <mxGeometry width="50" height="50" relative="1" as="geometry">
            <mxPoint x="580" y="250" as="sourcePoint" />
            <mxPoint x="780" y="430" as="targetPoint" />
          </mxGeometry>
        </mxCell>
        <mxCell id="hygX6IKFytHFEAlB1i6J-4" value="&lt;div&gt;ct103&lt;br&gt;&lt;/div&gt;&lt;div&gt;192.168.1.6&lt;br&gt;&lt;/div&gt;" style="swimlane;fontStyle=0;childLayout=stackLayout;horizontal=1;startSize=30;horizontalStack=0;resizeParent=1;resizeParentMax=0;resizeLast=0;collapsible=1;marginBottom=0;whiteSpace=wrap;html=1;labelBackgroundColor=none;labelBorderColor=none;swimlaneLine=1;strokeColor=default;rounded=1;swimlaneFillColor=#D4FEFF;fillColor=none;glass=0;shadow=0;arcSize=10;" vertex="1" parent="1">
          <mxGeometry x="720" y="594.5" width="100" height="43" as="geometry">
            <mxRectangle x="480" y="594.5" width="100" height="30" as="alternateBounds" />
          </mxGeometry>
        </mxCell>
        <mxCell id="hygX6IKFytHFEAlB1i6J-5" value="jellyfin" style="text;strokeColor=none;fillColor=none;align=center;verticalAlign=top;spacingLeft=4;spacingRight=4;overflow=hidden;points=[[0,0.5],[1,0.5]];portConstraint=eastwest;rotatable=0;fontSize=10;horizontal=1;labelPosition=center;verticalLabelPosition=top;html=1;whiteSpace=wrap;spacing=9;" vertex="1" parent="hygX6IKFytHFEAlB1i6J-4">
          <mxGeometry y="30" width="100" height="13" as="geometry" />
        </mxCell>
      </root>
    </mxGraphModel>
  </diagram>
</mxfile>
